<?xml version="1.0" encoding="UTF-8" standalone="no"?>
<!-- Created with Inkscape (http://www.inkscape.org/) -->

<svg
   version="1.1"
   id="svg1"
   width="599.01245"
   height="324.1315"
   viewBox="0 0 599.01245 324.1315"
   sodipodi:docname="video-mask.svg"
   inkscape:version="1.3.2 (091e20e, 2023-11-25)"
   xmlns:inkscape="http://www.inkscape.org/namespaces/inkscape"
   xmlns:sodipodi="http://sodipodi.sourceforge.net/DTD/sodipodi-0.dtd"
   xmlns="http://www.w3.org/2000/svg"
   xmlns:svg="http://www.w3.org/2000/svg">
  <sodipodi:namedview
     id="namedview1"
     pagecolor="#ffffff"
     bordercolor="#000000"
     borderopacity="0.25"
     inkscape:showpageshadow="2"
     inkscape:pageopacity="0.0"
     inkscape:pagecheckerboard="0"
     inkscape:deskcolor="#d1d1d1"
     inkscape:zoom="1.5858503"
     inkscape:cx="249.07773"
     inkscape:cy="45.716798"
     inkscape:window-width="1920"
     inkscape:window-height="1019"
     inkscape:window-x="0"
     inkscape:window-y="0"
     inkscape:window-maximized="1"
     inkscape:current-layer="svg1" />
  <defs
     id="defs1" />
  <g
     id="g1"
     transform="translate(-37.814488,-68.389821)">
    <path
       style="fill:#000000"
       d="m 358.17799,390.72658 c 0.58644,-0.98711 3.31626,-3.74927 6.06626,-6.13812 2.81005,-2.44102 5.01943,-5.59684 5.04436,-7.20525 0.0499,-3.21791 4.24144,-8.86188 6.58138,-8.86188 0.8424,0 1.16712,-0.58979 0.72161,-1.31065 -0.44552,-0.72086 -0.4074,-3.45684 0.0847,-6.07995 0.62529,-3.33312 1.45708,-4.55351 2.76219,-4.05269 1.3942,0.53501 1.57178,0.1329 0.70072,-1.58671 -1.2668,-2.50084 -0.45402,-20.30273 0.92703,-20.30427 1.33362,-10e-4 1.40523,-7.176 0.0875,-8.76952 -0.69624,-0.84199 -0.68817,-3.18121 0.0195,-5.64869 0.73347,-2.55745 0.72277,-4.51136 -0.0272,-4.97489 -0.67931,-0.41984 -1.23511,-2.75446 -1.23511,-5.18806 0,-2.47506 -0.96388,-5.22467 -2.18752,-6.2402 -1.89264,-1.57075 -2.07248,-3.88433 -1.33413,-17.16326 0.46936,-8.44128 1.24192,-17.9662 1.71681,-21.16649 0.81713,-5.50678 0.70996,-5.77 -1.9992,-4.91015 -2.49525,0.79196 -2.86262,0.39339 -2.86262,-3.10568 0,-2.63672 -1.0169,-4.72651 -2.96334,-6.08985 -4.04395,-2.83249 -4.14468,-2.78899 -7.54312,3.25773 -1.64863,2.93333 -3.46799,5.33333 -4.04302,5.33333 -0.57504,0 -2.09702,2.3318 -3.38218,5.18177 -1.28516,2.84998 -4.13889,6.51423 -6.34163,8.14279 -2.20274,1.62855 -5.54227,6.34675 -7.42119,10.48489 -1.87892,4.13814 -5.39811,9.86062 -7.82043,12.71664 -4.38962,5.17554 -4.71961,7.47391 -1.07307,7.47391 2.43176,0 2.40775,0.51691 -0.26628,5.73288 -4.02443,7.85005 -13.20932,18.26712 -16.1064,18.26712 -0.92588,0 -2.4385,1.25109 -3.36138,2.7802 -0.92288,1.52911 -4.37796,4.1738 -7.67796,5.87708 -3.3,1.70328 -9.66737,6.05398 -14.14971,9.66822 -7.48135,6.03243 -18.71062,11.92529 -20.09207,10.54384 -0.31657,-0.31657 0.0799,-4.69168 0.88096,-9.72246 2.79876,-17.57574 4.53125,-65.53993 2.75597,-76.29882 -1.75992,-10.66576 -13.89747,-47.83767 -16.48064,-50.47289 -1.2518,-1.27701 -3.37102,-1.20999 -9.89995,0.31311 -5.10757,1.19151 -14.17621,1.85738 -23.54484,1.72878 -12.2483,-0.16814 -15.90512,0.22819 -18.6401,2.02022 -3.89011,2.5489 -7.65765,2.86803 -9.70373,0.82195 -0.7741,-0.7741 -7.0441,-1.736 -13.93334,-2.13758 -7.73657,-0.45096 -18.89846,-2.40177 -29.19256,-5.10212 -9.16667,-2.40459 -19.96666,-5.12197 -23.99999,-6.03862 -10.84162,-2.46396 -12,-3.33499 -12,-9.02328 0,-5.14893 6.21812,-25.63146 7.77616,-25.61474 5.0609,0.0543 42.19547,5.80598 47.33011,7.33081 8.44843,2.50891 12.17897,2.51724 14.66345,0.0328 2.60066,-2.60066 28.80891,-5.18086 33.70733,-3.31848 2.72997,1.03793 4.3709,0.76903 7.66494,-1.25607 2.44528,-1.50329 5.57996,-2.31451 7.52467,-1.9473 4.16033,0.78559 14.59765,-6.67434 21.33333,-15.2477 l 4.66667,-5.93986 16.6888,0.2313 16.6888,0.23129 7.70374,-5.39649 c 4.23706,-2.96807 7.9771,-5.39649 8.3112,-5.39649 0.33411,0 0.60746,2.0775 0.60746,4.61665 0,6.01585 -4.6503,18.35192 -8.09234,21.46692 -1.48671,1.34546 -4.77414,5.85556 -7.30539,10.02245 -6.17824,10.17048 -6.19646,16.69254 -0.0818,29.29692 6.50835,13.41601 13.17686,24.02998 14.76997,23.5087 0.75696,-0.24768 1.53955,-2.50412 1.7391,-5.01432 0.74886,-9.41999 5.71449,-39.52824 7.78956,-47.23065 1.18539,-4.4 2.23603,-10.22899 2.33477,-12.95331 0.0987,-2.72432 1.22952,-6.18117 2.51285,-7.6819 1.28333,-1.50073 2.33333,-3.21023 2.33333,-3.79889 0,-0.58866 -2.69338,-3.08836 -5.9853,-5.55489 -6.42786,-4.81619 -6.94375,-5.7703 -8.52349,-15.76366 l -1.03361,-6.53859 6.9521,0.10049 c 5.38461,0.0778 6.79059,0.52134 6.23583,1.96704 -0.58947,1.53613 0.89706,1.71707 8.39759,1.02219 5.01262,-0.46438 9.43616,-1.16664 9.83009,-1.56057 1.47651,-1.47651 -3.41308,-3.19779 -9.13987,-3.21749 -6.81801,-0.0235 -5.99806,-2.2599 1.47646,-4.02707 l 4.45687,-1.05372 -5.4,-0.13648 c -2.97,-0.0751 -6.11,0.57352 -6.97778,1.44129 -0.86778,0.86778 -2.0204,1.13516 -2.56138,0.59417 -0.54099,-0.54098 -0.10099,-1.55628 0.97777,-2.25623 3.90003,-2.53048 8.50648,-2.94681 14.78909,-1.33663 7.32493,1.87733 9.1723,1.22722 9.1723,-3.2278 0,-1.95746 1.59594,-4.40702 4.19809,-6.44351 5.5417,-4.33703 4.58104,-7.99414 -1.63185,-6.2123 -2.75124,0.78904 -5.16465,0.7213 -6.87285,-0.1929 -1.44797,-0.77493 -3.77919,-1.10915 -5.18048,-0.7427 -1.67422,0.43782 -3.05986,-0.2905 -4.04119,-2.12413 -1.25305,-2.34134 -0.9895,-3.19842 1.63766,-5.325762 2.94614,-2.38564 8.04362,-2.68996 14.55729,-0.86908 1.59124,0.44483 1.94385,-0.66717 1.72527,-5.4409 -0.21664,-4.73116 -1.09032,-6.73328 -4.1314,-9.46745 -3.94234,-3.54447 -7.11899,-3.81137 -31.67237,-2.66115 -4.84254,0.22685 -7.5674,3.42994 -8.71178,10.24073 -3.49629,20.808182 -4.17018,25.509922 -4.04489,28.221202 0.0846,1.82982 -0.63566,3 -1.84644,3 -1.09178,0 -1.98506,-1.16459 -1.98506,-2.58798 0,-1.42339 -0.6,-2.9588 -1.33333,-3.41202 -2.07792,-1.28422 -1.56774,-3.33333 0.82992,-3.33333 1.63718,0 1.80916,-0.42668 0.70717,-1.75448 -0.80085,-0.96497 -1.84745,-5.08436 -2.32578,-9.15421 -1.58402,-13.477562 3.62128,-22.444432 16.92863,-29.161962 12.16264,-6.13968 20.67229,-5.36709 29.25835,2.65636 1.22479,1.14452 4.47318,3.80597 7.21865,5.91433 6.13184,4.70888 8.92981,11.0452 8.55027,19.363102 -0.15868,3.47742 0.0671,6.89799 0.50178,7.60128 1.03475,1.67425 -2.37833,17.97572 -3.98728,19.04399 -1.62735,1.08048 -4.32881,11.99116 -3.50228,14.14505 0.82183,2.14166 -10.47261,11.86549 -17.80774,15.33139 l -5.62831,2.65941 2.85184,4.83351 c 2.22111,3.7645 2.52885,5.35069 1.39146,7.17194 -1.08757,1.74148 -0.96535,3.77525 0.47881,7.96693 1.54264,4.47755 1.76121,10.034 1.06886,27.1726 -0.57847,14.31967 -0.42457,21.09698 0.45895,20.21076 0.73109,-0.73333 3.51602,-7.04744 6.18873,-14.03135 5.17868,-13.53212 7.91073,-26.47336 6.64962,-31.49804 -0.92748,-3.69512 4.83596,-37.80399 6.38773,-37.80399 0.59994,0 3.946,2.18045 7.43568,4.84543 3.48968,2.66499 8.28581,5.77179 10.65807,6.90402 4.01866,1.91801 4.74706,1.86436 10.66666,-0.78564 3.49441,-1.56432 10.55347,-3.20161 15.68681,-3.63842 l 9.33333,-0.79421 6.21126,7.75856 c 7.15399,8.93611 11.07408,10.5035 31.12207,12.44366 6.6,0.63872 17.4,1.91328 24,2.83235 14.82705,2.06473 29.26044,1.99418 55.9845,-0.27364 11.36579,-0.96451 21.05442,-1.3643 21.53029,-0.88843 0.47587,0.47587 0.23758,1.62971 -0.52954,2.5641 -2.07985,2.53337 -0.033,18.99786 2.7432,22.0655 1.24936,1.38052 2.27156,3.13481 2.27156,3.89843 0,2.09362 -9.71536,4.27243 -25.33334,5.68138 -7.7,0.69464 -17.15615,2.284 -21.01366,3.5319 -5.81529,1.88125 -7.90545,2.00174 -12.23295,0.70519 -5.91294,-1.77156 -19.26889,-0.77181 -23.42006,1.7531 -1.46666,0.89208 -4.58809,2.28012 -6.9365,3.08452 -3.61159,1.23708 -4.77453,1.06556 -7.54364,-1.11262 -4.13609,-3.25345 -16.98292,-3.632 -19.51986,-0.57517 -2.25314,2.71487 -7.42494,2.51295 -16.61437,-0.64868 -4.23417,-1.45677 -8.23237,-2.31872 -8.88488,-1.91545 -2.75237,1.70106 -5.31312,9.34017 -8.5001,25.3571 -5.09558,25.60907 -5.6368,40.62287 -2.124,58.92117 1.58879,8.27611 2.55127,15.59347 2.13883,16.26081 -0.41243,0.66734 -0.0901,7.69597 0.71622,15.61919 0.80636,7.92322 1.76027,25.95586 2.11981,40.07253 l 0.65369,25.66666 h -25.48552 c -20.99763,0 -25.29776,-0.31604 -24.41927,-1.79475 z M 345.91091,127.18799 c -0.45322,-0.73333 -1.38863,-1.33333 -2.07869,-1.33333 -0.69005,0 -1.25464,0.6 -1.25464,1.33333 0,0.73334 0.93541,1.33334 2.07869,1.33334 1.14328,0 1.70787,-0.6 1.25464,-1.33334 z m 1.63889,-26.13889 c -0.44305,-0.44305 -1.59305,-0.49042 -2.55555,-0.10526 -1.06365,0.42564 -0.7477,0.74158 0.80555,0.80556 1.40556,0.0579 2.19306,-0.25724 1.75,-0.7003 z m -288.61413,92.977 c -3.103046,-0.55594 -6.053047,-1.42194 -6.555556,-1.92445 -1.940944,-1.94095 0.931908,-2.44849 6.788704,-1.19936 3.362094,0.71707 6.429005,0.79228 6.815358,0.16715 0.386352,-0.62513 -0.97208,-1.5043 -3.018739,-1.95372 -6.655875,-1.46153 -8.016498,-2.34601 -4.532592,-2.94643 1.753732,-0.30224 5.46521,0.47708 8.247728,1.73182 5.050012,2.27724 7.225958,2.20877 18.037573,-0.56759 8.503911,-2.18376 15.192765,-2.75103 15.192765,-1.28847 0,0.72746 1.199999,0.94178 2.666659,0.47628 2.33654,-0.74159 2.66668,-0.2396 2.66668,4.05469 0,4.69496 -0.1542,4.85991 -3.66668,3.92248 -2.016659,-0.53822 -4.266663,-0.93237 -4.999996,-0.8759 -12.463875,0.95985 -33.290492,1.1831 -37.641904,0.4035 z m 511.33089,-2.3524 c -1.07568,-1.88744 -5.38231,-20.5758 -4.84807,-21.03789 0.91432,-0.79086 25.77006,-8.41755 32.82576,-10.0722 3.85,-0.90288 7,-2.18175 7,-2.84194 0,-0.66019 1.2,-1.20034 2.66667,-1.20034 1.71981,0 2.66667,0.88889 2.66667,2.5034 0,3.06054 -2.17917,4.98879 -7.00746,6.20062 -2.01257,0.50512 -3.65921,1.43795 -3.65921,2.07295 0,2.17766 8.66723,5.7944 14,5.84204 4.32575,0.0387 5.25932,0.48847 4.94155,2.38099 -0.46211,2.75217 0.54173,2.96753 3.10742,0.66666 4.51181,-4.04612 5.91298,-4.93964 8.93584,-5.69833 3.99773,-1.00336 7.47326,2.40322 5.22081,5.11724 -3.74739,4.51533 -24.2936,11.37204 -40.87229,13.63996 -7.33333,1.00318 -15.80554,2.2189 -18.82713,2.70159 -3.0216,0.48269 -5.78935,0.35906 -6.15056,-0.27475 z M 43.056386,185.96537 c -5.093943,-3.11539 -6.35996,-4.9481 -4.298291,-6.22228 0.856545,-0.52937 2.280961,0.0271 3.165369,1.2366 0.884408,1.2095 3.505871,2.57866 5.825474,3.04258 3.951968,0.79039 7.215675,3.16572 4.349707,3.16572 -0.716635,0 -2.102045,0.30119 -3.078689,0.66931 -0.976644,0.36812 -3.660251,-0.48325 -5.96357,-1.89193 z m 34.854521,-7.72797 c -2.933334,-1.18058 -5.516564,-2.28289 -5.740513,-2.44958 -0.223948,-0.16669 0.988279,-1.8088 2.693837,-3.64912 2.952911,-3.18625 3.29076,-3.24927 7.073846,-1.31959 5.286257,2.69643 10.061208,7.1472 9.18638,8.5627 -1.090833,1.765 -7.326572,1.22494 -13.21355,-1.14441 z m -35.943061,-1.62394 c -1.143696,-1.85054 0.987756,-2.69033 5.375616,-2.118 2.145427,0.27984 6.450777,0.55014 9.567445,0.60067 3.116666,0.0505 5.666666,0.69186 5.666666,1.4252 0,1.69606 -19.564394,1.78351 -20.609727,0.0921 z m 31.613992,-13.7588 c -3.725296,-2.60418 -5.834408,-6.33333 -3.581969,-6.33333 1.42723,0 9.911038,6.98343 9.911038,8.15825 0,1.88432 -1.741169,1.38227 -6.329069,-1.82492 z M 333.57758,118.21172 c -6.09897,-0.54932 -7.21191,-2.10291 -3.08766,-4.31015 3.68664,-1.97303 8.82616,-1.70354 10.70585,0.56135 1.5575,1.87667 0.84873,4.9672 -1.03021,4.49213 -0.50672,-0.12812 -3.47131,-0.46262 -6.58798,-0.74333 z m -20.31698,-12.3265 c -1.12054,-2.09376 -0.85587,-3.19104 1.28642,-5.33334 3.34373,-3.343732 14.77689,-3.814372 17.3498,-0.714202 2.80589,3.380892 0.56451,5.538302 -7.41974,7.141772 -9.83944,1.97604 -9.55866,2.00343 -11.21648,-1.09423 z m 9.98365,-4.03056 c -0.45323,-0.73333 -1.65323,-1.33333 -2.66667,-1.33333 -1.01344,0 -2.21344,0.6 -2.66667,1.33333 -0.46921,0.7592 0.67905,1.33333 2.66667,1.33333 1.98762,0 3.13588,-0.57413 2.66667,-1.33333 z"
       id="path1" />
  </g>
  <path
     style="fill:#000000;stroke:#000000;stroke-linejoin:round"
     d="m 243.16636,111.53268 c 25.75151,-26.719418 25.75151,-26.719418 25.75151,-26.719418 l 9.35893,-8.749034 c 0,0 29.28711,-9.454797 37.16414,-2.982126 7.87703,6.472671 7.87703,6.472671 7.87703,6.472671 l 0.22808,47.699647 -20.56234,48.07505 -38.9293,1.291 c 0,0 -15.29906,-24.7365 -20.88805,-65.08779 z"
     id="path4" />
  <path
     style="fill:#000000;stroke:#000000;stroke-linejoin:round"
     d="m 276.28559,65.040873 -4.9075,-6.942568 -3.52742,-9.863326 0.16785,-26.87049 17.31362,-15.8029661 c 0,0 14.24663,-6.21726623 24.41777,4.6019411 10.17113,10.819208 10.17113,10.819208 10.17113,10.819208 l 2.21021,18.492276 -10.43479,25.636736 -25.35179,7.693521 c 0,0 -1.85121,-1.770305 -10.05908,-7.764332 z"
     id="path5" />
</svg>
